<?xml version="1.0" encoding="UTF-8"?>
<svg xmlns="http://www.w3.org/2000/svg" version="1.1" viewBox="437 344 309 308">
  
  <defs>
    <style>
      .st0 {
        fill: #231f20;
      }

      .st1 {
        fill: #86161a;
      }

      .st2 {
        fill: #f9f8f8;
      }

      .st3 {
        fill: #989a9b;
      }
    </style>
  </defs>
  <g>
    <path class="st1" d="M591.5,643.86c-80.82-.15-146.48-65.72-146.19-145.98.3-81.09,66.34-146.69,147.2-146.21,80.6.48,145.97,66.32,145.7,146.74-.27,80.55-65.89,145.6-146.72,145.45ZM557.01,593.65c1.92-.18,2.71-.52,3.09-.26,24.81,16.81,53.29,19.61,81.13,15.46,18.31-2.73,36.11-12.28,50.65-25.72,24.91-23.04,22.74-45.53-6.45-63.02-1.65-.99-3.35-1.92-5.03-2.86-7.49-4.19-9.49-9.93-5.34-17.72,6.38-11.96,4.56-23.62-1.85-34.9-4.12-7.26-8.82-14.2-12.68-21.58-2.27-4.35-5.04-8.94-3.83-15.61,4.54,4.69,6.93,9.98,12.92,12.25,0-5.33-.49-9.9.09-14.32,1.59-12.16-3.67-21.09-12.25-28.88-2.76-2.51-4.67-3.17-8.21-.91-36.4,23.2-77.39,30.38-119.43,32.97-8.58.53-13.28,3.5-15.36,11.2-4.53,16.71-9.07,33.35-17.59,48.67-2.1,3.77-2.74,8.63-3.05,13.06-.91,12.7-6.41,23.33-13.47,33.54-9.67,13.97-9.3,19.94,1.11,33.82,22.12,29.48,53.26,43.39,88.06,50.91,1.39.3,3.83.07,4.35-.78,1.19-1.94-.49-3.54-2.06-4.77-6.68-5.26-11.79-11.63-14.77-20.53ZM632.56,379.75c-19.29-8.45-37.73-11.05-56.72-6.78-18.46,4.16-33.77,13.52-44.38,29.67-1.04,1.58-2.57,3.07-1.57,5.13.3.62,2.15,1.19,2.18,1.14,2.97-5.14,8.44-2.24,12.52-3.47,16.65-5,33.58-8.97,48.52-20.33.6,4.56.96,7.35,1.36,10.39,12.98-3.77,25.29-7.94,38.1-15.75Z" />
    <path class="st2" d="M557.57,593.65c2.98,8.91,8.09,15.27,14.77,20.53,1.57,1.24,3.25,2.83,2.06,4.77-.52.85-2.96,1.08-4.35.78-34.8-7.51-65.94-21.42-88.06-50.91-10.42-13.88-10.78-19.85-1.11-33.82,7.06-10.21,12.56-20.84,13.47-33.54.32-4.43.96-9.29,3.05-13.06,8.52-15.32,13.06-31.96,17.59-48.67,2.09-7.7,6.78-10.67,15.36-11.2,42.04-2.59,83.04-9.76,119.43-32.97,3.54-2.26,5.45-1.6,8.21.91,8.58,7.79,13.85,16.73,12.25,28.88-.58,4.43-.09,8.99-.09,14.32-5.99-2.27-8.38-7.56-12.92-12.25-1.21,6.67,1.56,11.26,3.83,15.61,3.86,7.39,8.56,14.33,12.68,21.58,6.41,11.28,8.23,22.94,1.85,34.9-4.15,7.79-2.15,13.53,5.34,17.72,1.68.94,3.38,1.87,5.03,2.86,29.19,17.48,31.36,39.98,6.45,63.02-14.53,13.44-32.34,22.98-50.65,25.72-27.84,4.15-56.32,1.35-81.13-15.46-.38-.26-1.17.07-3.09.26ZM534.96,521.61c9.37,8.47,14.9,17.29,19.11,27.17,2.92,6.85,7.42,12.65,15.91,11.32,6.25-.98,11.99.48,17.99,1.26,16.46,2.14,33.28,2.46,48.07-5.73,11.29-6.25,21.36-9.22,33.69-3.68,4.2,1.89,9.67,2.87,15.96,1.47-3.82-3.46-7.06-6.37-10.28-9.31-11.08-10.12-20.06-21.73-25-36.06-1.98-5.75-4.7-11.65-3.86-17.74.72-5.21,7.58-3.82,10.45-7.28,1.16-1.4,3.63-2.19,2.83-4.49-.89-2.54-3.25-1.23-4.97-1.14-18.23.91-34.04-5.29-48.23-16.28-7.88-6.1-15.44-12.67-23.65-18.29-21.96-15.03-50.67-8.03-65.09,9.54,9.48-3.27,9.75.28,9.06,8.01-1.89,21.23-8.65,39.86-22.94,55.95-5.45,6.13-10.34,13.19-12.21,23.84,7.27-5.15,12.83-9.08,19.87-14.06-2.51,12.9-9.89,22.18-12.23,35.75,14.02-13.51,30.07-21.41,35.54-40.25Z" />
    <path class="st3" d="M537.99,521.61c-5.47,18.83-21.52,26.74-35.54,40.25,2.35-13.58,9.72-22.86,12.23-35.75-7.04,4.98-12.6,8.92-19.87,14.06,1.87-10.65,6.77-17.71,12.21-23.84,14.29-16.09,21.05-34.72,22.94-55.95.69-7.73.43-11.28-9.06-8.01,14.42-17.57,43.13-24.57,65.09-9.54,8.21,5.62,15.77,12.19,23.65,18.29,14.19,10.99,30,17.19,48.23,16.28,1.72-.09,4.08-1.39,4.97,1.14.8,2.3-1.67,3.09-2.83,4.49-2.87,3.46-9.73,2.08-10.45,7.28-.84,6.09,1.88,12,3.86,17.74,4.94,14.33,13.92,25.95,25,36.06,3.22,2.94,6.46,5.85,10.28,9.31-6.29,1.4-11.76.41-15.96-1.47-12.33-5.54-22.4-2.57-33.69,3.68-14.78,8.19-31.6,7.86-48.07,5.73-6-.78-11.75-2.24-17.99-1.26-8.49,1.33-13-4.47-15.91-11.32-4.21-9.88-9.74-18.7-19.11-27.17ZM580.66,455.18c-8-5.43-15.21-9.34-23.91-9.55-11.55-.28-15.18,2.81-15.09,14.34.07,8.96,3.6,18.61,1.3,26.73-4.63,16.33.96,26.78,12.8,37.14,5.97,5.23,8.98,13.83,13.33,20.91,2.18,3.55,3.38,3.95,7.83,1.2,14.07-8.68,26.96-18.49,37.94-30.83,1.64-1.84,3.05-4.5,6.29-2.75,4.41,2.38.73,5.3-.1,7.23-3.53,8.13-7.7,15.98-11.98,24.63,12.04-1.73,22.88-4.91,32.48-11.89,3.65-2.65,4.73-5.01,2.55-9.59-4.4-9.28-7.47-19.13-8.24-29.47-.28-3.77-1.68-5.61-5.36-6.75-11.18-3.46-20.76-9.91-30.04-16.87-2.17-1.63-4.09-4.47-7.5-3.26-9.68,3.43-19.03-1.2-28.56-1.11-1.51.01-3.38.4-3.95-1.69-.47-1.74.63-2.96,1.71-4.21,4.82-5.55,11.58-2.22,18.48-4.2Z" />
    <path class="st2" d="M579.14,455.18c-6.9,1.97-13.66-1.36-18.48,4.2-1.08,1.24-2.18,2.46-1.71,4.21.56,2.09,2.44,1.71,3.95,1.69,9.54-.09,18.88,4.54,28.56,1.11,3.4-1.21,5.33,1.64,7.5,3.26,9.28,6.96,18.86,13.41,30.04,16.87,3.68,1.14,5.08,2.98,5.36,6.75.77,10.34,3.84,20.19,8.24,29.47,2.17,4.58,1.09,6.94-2.55,9.59-9.6,6.97-20.44,10.16-32.48,11.89,4.28-8.65,8.45-16.5,11.98-24.63.83-1.93,4.52-4.85.1-7.23-3.25-1.75-4.66.91-6.29,2.75-10.98,12.34-23.87,22.15-37.94,30.83-4.46,2.75-5.66,2.35-7.83-1.2-4.35-7.08-7.36-15.68-13.33-20.91-11.84-10.37-17.43-20.82-12.8-37.14,2.3-8.12-1.22-17.77-1.3-26.73-.09-11.53,3.53-14.62,15.09-14.34,8.7.21,15.9,4.13,23.91,9.55ZM563.52,482.37c6.08-1.53,11.9-3,18.66-4.71-6.51-4.99-13.17-5.54-19.49-3.63-1.92.58-.02,5.46.84,8.34Z" />
    <path class="st3" d="M556.34,482.37c-.86-2.88-2.75-7.76-.84-8.34,6.32-1.91,12.98-1.35,19.49,3.63-6.76,1.7-12.58,3.17-18.66,4.71Z" />
  </g>
  <path class="st1" d="M727.29,658.46c-6.6,2.6-13.4,4.94-19.94,7.07l-.13-.13.8-4.07c7.6-2.47,15.47-5.2,21.34-7.47l.13.2-2.2,4.4ZM725.42,663.19c1.67,3.47,2.33,6.94,2.33,8.6,0,1.2.07,2.47-.33,3.67-.8,2.67-2.07,3.53-3.73,3.53-1.47,0-2.87-.2-4.07-1.2h-.2c-1.93,2.4-3.93,3.73-5.8,3.73-1.67,0-2.8-.87-3.47-2-.67-1.13-.93-2.87-.93-4.67,0-1.47.13-2.87.53-4.27.8-.6,1.6-1.13,2.33-1.6l.2.13c-.33,1.33-.47,2.47-.47,3.67,0,2.07.67,3.33,2.07,3.33,2.2,0,2.93-1.73,2.93-3.07l-.2-4.54c.73-.6,1.2-1.13,2.07-1.67l.2.13c.13,3.4,1.07,5.47,2.4,6.27.73.4,1.53.67,2.13.67.53,0,1.27-.27,1.6-.67-.07-.87-.93-3.53-2.33-6.67.8-1.27,1.6-2.33,2.47-3.4h.27Z" />
  <path class="st1" d="M639.55,688.26c-.47-.33-1-.53-1.6-.73-3.73,4.74-10.47,7.4-13.94,8.67-1.07,0-6.14-.4-6.6-1.2l-.13-.33c5.94-2.33,12.67-4.94,16.67-7.94-5.34-.93-8.07-2.93-8.07-6.8,0-5.14,4.87-9.14,9.07-9.14,2.53,0,5.74,2.4,5.74,9.47,0,1-.13,1.93-.4,2.8.93.13,1.73.4,2.4.87l-3.13,4.34ZM637.35,682.66c.13-.4.2-.8.2-1.2-.07-3-2.13-6.54-4.67-6.54-2,0-3.87,1.47-3.87,2.74,0,2.27,3.33,4,8.34,5Z" />
  <path class="st1" d="M536.43,674.68c-8.2,3.27-16.54,6.13-24.61,8.74l-.13-.13,1-4.6c9.34-3.13,19.07-6.4,26.28-9.2l.13.2-2.67,5Z" />
  <path class="st1" d="M494.38,680.69c-8.2,3.27-16.54,6.13-24.61,8.74l-.13-.13,1-4.6c9.34-3.13,19.07-6.4,26.28-9.2l.13.2-2.67,5Z" />
  </svg>
